<svg width="1277" height="1266" viewBox="0 0 1277 1266" fill="none" xmlns="http://www.w3.org/2000/svg">
<path d="M74.479 464.371L92.4728 471.069L96.3974 460.526C97.3044 458.09 97.3058 456.223 96.4014 454.926C95.4033 453.594 93.9671 452.579 92.0928 451.881L87.3132 450.102C85.4388 449.405 83.7355 449.251 82.2032 449.641C80.5772 449.996 79.3106 451.392 78.4036 453.828L74.479 464.371ZM148.506 497.689L140.448 519.338C139.785 521.119 138.922 522.291 137.858 522.856C136.736 523.292 135.284 523.178 133.503 522.515L42.4098 488.606C40.6291 487.944 39.5035 487.098 39.0328 486.069C38.5033 484.911 38.57 483.442 39.2328 481.662L56.6582 434.85C60.5654 424.353 65.4539 417.957 71.3239 415.661C77.1349 413.235 83.508 413.314 90.4432 415.895L96.9097 418.302C100.846 419.767 103.993 421.632 106.351 423.897C108.65 426.034 109.868 428.781 110.005 432.14C112.451 427.289 116.03 423.979 120.743 422.212C125.49 420.352 130.816 420.52 136.72 422.718L166.523 433.811C168.303 434.474 169.458 435.384 169.988 436.542C170.458 437.571 170.362 438.975 169.699 440.756L161.589 462.545C160.926 464.326 160.062 465.499 158.999 466.063C157.876 466.499 156.425 466.385 154.644 465.722L133.136 457.716C131.074 456.949 129.418 456.812 128.166 457.307C126.856 457.673 125.835 458.84 125.103 460.808L117.777 480.489L145.33 490.745C147.11 491.408 148.265 492.318 148.795 493.475C149.265 494.504 149.169 495.909 148.506 497.689Z" fill="black"/>
<path d="M220.922 355.782L183.767 414.635C182.753 416.241 181.667 417.212 180.51 417.546C179.322 417.742 177.925 417.333 176.318 416.318L94.1269 364.43C92.5202 363.416 91.5922 362.357 91.3428 361.253C91.0622 360.012 91.4291 358.588 92.4434 356.981L129.598 298.128C130.612 296.521 131.713 295.62 132.902 295.424C134.058 295.09 135.44 295.43 137.047 296.444L151.887 305.813C153.494 306.827 154.437 307.955 154.718 309.197C154.967 310.3 154.585 311.655 153.57 313.262L131.47 348.27L141.236 354.435L156.851 329.702C157.865 328.095 158.966 327.194 160.155 326.998C161.312 326.664 162.693 327.004 164.3 328.018L177.872 336.586C179.478 337.6 180.422 338.728 180.702 339.97C180.952 341.073 180.569 342.428 179.555 344.035L163.941 368.769L174.849 375.655L196.949 340.648C197.964 339.041 199.065 338.14 200.253 337.944C201.41 337.61 202.792 337.95 204.398 338.964L219.238 348.333C220.845 349.347 221.789 350.475 222.069 351.716C222.319 352.82 221.936 354.175 220.922 355.782Z" fill="black"/>
<path d="M293.262 275.678L260.532 309.756C251.873 318.771 243.628 323.747 235.796 324.683C228.034 325.547 220.403 322.377 212.902 315.173L179.148 282.755C171.647 275.551 168.172 268.053 168.722 260.262C169.341 252.399 173.98 243.96 182.639 234.945L208.615 207.899C209.931 206.528 211.191 205.866 212.394 205.913C213.595 205.818 214.88 206.428 216.25 207.744L229.341 220.317C230.711 221.633 231.409 222.927 231.435 224.2C231.458 225.331 230.811 226.582 229.495 227.952L207.883 250.454C205.735 252.69 204.611 254.799 204.509 256.782C204.336 258.695 205.151 260.517 206.954 262.249L232.81 287.082C234.613 288.814 236.328 289.699 237.956 289.737C239.652 289.702 241.297 288.856 242.89 287.197L252.969 276.703L236.092 260.494C234.722 259.178 234.025 257.954 234.003 256.823C233.977 255.551 234.622 254.229 235.938 252.859L252.044 236.09C253.36 234.72 254.619 234.058 255.823 234.104C257.023 234.009 258.308 234.62 259.679 235.936L293.108 268.043C294.478 269.359 295.176 270.653 295.202 271.926C295.225 273.057 294.578 274.307 293.262 275.678Z" fill="black"/>
<path d="M315.876 257.229C314.32 258.319 312.944 258.794 311.748 258.655C310.576 258.377 309.445 257.46 308.355 255.904L298.116 241.283C297.026 239.727 296.579 238.391 296.775 237.277C296.996 236.024 297.885 234.852 299.441 233.762L311.604 225.243L282.692 183.961L270.529 192.48C268.972 193.57 267.596 194.045 266.4 193.906C265.228 193.628 264.098 192.711 263.008 191.154L252.596 176.288C251.506 174.731 251.059 173.396 251.255 172.282C251.476 171.028 252.365 169.857 253.921 168.767L306.261 132.11C307.818 131.02 309.181 130.614 310.353 130.892C311.549 131.031 312.692 131.879 313.782 133.435L324.194 148.302C325.284 149.858 325.718 151.263 325.498 152.517C325.301 153.631 324.425 154.733 322.869 155.823L310.951 164.17L339.863 205.452L351.781 197.105C353.337 196.015 354.701 195.609 355.873 195.888C357.069 196.027 358.212 196.874 359.302 198.431L369.542 213.051C370.632 214.608 371.066 216.013 370.845 217.266C370.649 218.38 369.773 219.482 368.216 220.572L315.876 257.229Z" fill="black"/>
<path d="M436.063 186.539L392.875 206.074C391.144 206.857 389.704 207.069 388.554 206.711C387.454 206.221 386.513 205.11 385.73 203.379L378.497 187.389C377.714 185.657 377.522 184.263 377.921 183.204C378.37 182.013 379.46 181.026 381.192 180.243L417.956 163.614C419.14 163.078 419.841 162.322 420.058 161.346C420.325 160.238 420.211 159.137 419.716 158.043C419.016 156.495 418.182 155.5 417.214 155.059C416.338 154.578 415.287 154.559 414.061 155.004L392.263 161.406C385.473 163.38 379.377 163.613 373.975 162.105C368.665 160.556 364.279 155.955 360.817 148.301L354.326 133.951C350.823 126.206 350.65 119.15 353.807 112.784C356.922 106.326 362.899 101.098 371.737 97.1006L410.005 79.7917C411.736 79.0087 413.151 78.8624 414.251 79.3527C415.401 79.7107 416.367 80.7553 417.15 82.4864L424.506 98.7501C425.289 100.481 425.456 101.942 425.007 103.133C424.608 104.192 423.543 105.113 421.812 105.896L389.968 120.299C388.783 120.835 388.058 121.657 387.791 122.765C387.483 123.783 387.596 124.884 388.132 126.068C388.668 127.253 389.44 128.111 390.449 128.642C391.458 129.174 392.575 129.217 393.8 128.773L415.401 122.295C422.191 120.322 428.286 120.089 433.688 121.597C439.089 123.105 443.521 127.685 446.983 135.339L453.474 149.689C456.977 157.434 457.125 164.556 453.918 171.055C450.761 177.421 444.81 182.583 436.063 186.539Z" fill="black"/>
<path d="M531.702 156.38L508.048 161.946C506.198 162.381 504.744 162.313 503.684 161.74C502.699 161.047 501.989 159.776 501.554 157.927L484.685 86.2347L463.221 91.2852C461.372 91.7204 459.917 91.6517 458.858 91.0791C457.873 90.3862 457.163 89.1151 456.728 87.2656L452.57 69.5981C452.135 67.7486 452.215 66.3429 452.811 65.3809C453.481 64.2987 454.741 63.54 456.59 63.1048L533.685 44.9642C535.534 44.529 536.951 44.6578 537.936 45.3506C538.995 45.9232 539.743 47.1342 540.178 48.9837L544.335 66.6512C544.77 68.5007 544.653 69.9666 543.983 71.0488C543.387 72.0107 542.165 72.7093 540.315 73.1445L518.852 78.195L535.721 149.887C536.156 151.737 536.039 153.202 535.369 154.285C534.774 155.247 533.551 155.945 531.702 156.38Z" fill="black"/>
<path d="M655.434 144.402L585.881 146.941C583.982 147.01 582.568 146.662 581.64 145.895C580.807 145.025 580.356 143.64 580.287 141.742L576.741 44.6064C576.672 42.7077 577.022 41.344 577.793 40.5153C578.659 39.5831 580.042 39.0823 581.941 39.013L651.494 36.4739C653.393 36.4046 654.758 36.8051 655.591 37.6753C656.519 38.4419 657.018 39.7746 657.088 41.6733L657.728 59.2116C657.797 61.1104 657.399 62.5259 656.532 63.4581C655.762 64.2867 654.427 64.7357 652.528 64.805L611.156 66.3154L611.577 77.8577L640.808 76.7906C642.707 76.7213 644.072 77.1217 644.904 77.992C645.833 78.7586 646.332 80.0913 646.401 81.99L646.987 98.0293C647.056 99.9281 646.658 101.344 645.791 102.276C645.021 103.104 643.686 103.553 641.787 103.623L612.557 104.69L613.028 117.581L654.4 116.071C656.299 116.002 657.664 116.402 658.497 117.272C659.425 118.039 659.924 119.372 659.993 121.27L660.634 138.809C660.703 140.707 660.304 142.123 659.438 143.055C658.667 143.884 657.333 144.333 655.434 144.402Z" fill="black"/>
<path d="M728.104 71.0155L724.851 89.9378L735.938 91.8443C738.5 92.2849 740.335 91.9408 741.442 90.8121C742.567 89.5849 743.298 87.9858 743.637 86.0147L744.501 80.9884C744.84 79.0174 744.676 77.315 744.01 75.8813C743.36 74.349 741.754 73.3626 739.192 72.922L728.104 71.0155ZM709.056 149.929L686.29 146.014C684.417 145.692 683.106 145.061 682.354 144.12C681.718 143.097 681.561 141.65 681.883 139.777L698.355 43.9831C698.677 42.1106 699.3 40.8479 700.224 40.1951C701.263 39.4606 702.719 39.2544 704.592 39.5763L753.82 48.041C764.858 49.939 772.048 53.5598 775.391 58.9036C778.849 64.1658 779.951 70.4433 778.697 77.7363L777.528 84.5365C776.816 88.6758 775.565 92.1135 773.776 94.8499C772.102 97.5046 769.627 99.2098 766.351 99.9657C771.572 101.472 775.486 104.377 778.094 108.682C780.801 113.003 781.621 118.268 780.553 124.477L775.164 155.817C774.842 157.689 774.162 158.993 773.122 159.727C772.198 160.38 770.8 160.546 768.927 160.224L746.014 156.284C744.141 155.962 742.829 155.33 742.078 154.389C741.442 153.367 741.285 151.919 741.607 150.047L745.496 127.429C745.869 125.26 745.696 123.607 744.979 122.469C744.377 121.25 743.041 120.462 740.971 120.106L720.275 116.547L715.293 145.522C714.971 147.395 714.29 148.698 713.251 149.433C712.327 150.085 710.928 150.251 709.056 149.929Z" fill="black"/>
<path d="M852.825 191.613L832.695 181.561C830.995 180.712 829.921 179.729 829.474 178.611C829.16 177.448 829.427 176.017 830.276 174.317L873.701 87.3565C874.55 85.6567 875.511 84.6276 876.584 84.2693C877.791 83.8662 879.245 84.089 880.945 84.9379L894.901 91.9073C896.601 92.7561 897.899 93.7393 898.794 94.8569C899.778 96.0191 900.517 97.5616 901.01 99.4844L912.167 142.277L926.441 113.693C927.29 111.993 928.251 110.964 929.324 110.606C930.531 110.202 931.985 110.425 933.685 111.274L953.814 121.326C955.514 122.175 956.521 123.181 956.835 124.343C957.282 125.461 957.082 126.87 956.233 128.57L912.808 215.53C911.959 217.23 910.931 218.282 909.724 218.685C908.651 219.043 907.265 218.798 905.565 217.949L885.435 207.897C883.735 207.048 882.661 206.065 882.213 204.947C881.9 203.784 882.167 202.353 883.016 200.653L891.259 184.147L882.183 144.909L860.068 189.194C859.219 190.894 858.191 191.945 856.984 192.348C855.911 192.707 854.525 192.462 852.825 191.613Z" fill="black"/>
<path d="M1017.84 268.114C1014.94 271.685 1011.75 274.504 1008.27 276.571C1004.92 278.624 1001.04 279.595 996.625 279.484C992.347 279.359 987.368 277.956 981.687 275.275C976.083 272.657 969.672 268.417 962.453 262.554C955.234 256.691 949.729 251.255 945.94 246.245C942.15 241.235 939.716 236.618 938.638 232.393C937.701 228.154 937.855 224.157 939.101 220.402C940.487 216.633 942.631 212.962 945.53 209.392L977.776 169.686C980.675 166.115 983.796 163.303 987.138 161.25C990.62 159.183 994.532 158.173 998.873 158.221C1003.29 158.331 1008.34 159.727 1014.02 162.408C1019.7 165.089 1026.15 169.361 1033.37 175.224C1040.59 181.086 1046.06 186.491 1049.77 191.438C1053.56 196.448 1055.92 201.073 1056.86 205.312C1057.88 209.614 1057.69 213.65 1056.3 217.419C1055.06 221.174 1052.98 224.837 1050.08 228.408L1017.84 268.114ZM975.367 226.665C974.106 228.218 973.616 230.01 973.898 232.042C974.243 233.997 976.511 236.677 980.703 240.081C984.895 243.485 987.983 245.155 989.967 245.092C992.014 244.951 993.668 244.104 994.928 242.551L1020.37 211.229C1021.56 209.754 1021.99 208.039 1021.64 206.084C1021.36 204.052 1019.13 201.334 1014.93 197.93C1010.74 194.525 1007.62 192.894 1005.58 193.035C1003.59 193.099 1002 193.868 1000.8 195.343L975.367 226.665Z" fill="black"/>
<path d="M1147.81 299.736L1161.49 317.412C1162.65 318.915 1163.12 320.258 1162.9 321.441C1162.82 322.643 1162.03 323.825 1160.53 324.987L1114.5 360.604C1111.97 362.563 1109.5 364.28 1107.1 365.756C1104.85 367.251 1101.86 368.616 1098.13 369.852L1077.41 376.405C1075.92 376.927 1074.43 377.13 1072.95 377.012C1071.61 376.912 1070.45 376.229 1069.47 374.964L1057.26 359.186C1056.28 357.921 1055.67 356.56 1055.43 355.103C1055.19 353.647 1055.57 352.271 1056.6 350.975L1071.71 330.555C1072.32 329.706 1072.59 328.992 1072.52 328.413C1072.59 327.852 1072.44 327.334 1072.07 326.859L1071.25 325.792C1070.88 325.317 1070.39 325.005 1069.76 324.854C1069.28 324.721 1068.55 324.842 1067.58 325.217L1043.93 334.604C1042.5 335.206 1041.13 335.316 1039.82 334.936C1038.59 334.494 1037.49 333.641 1036.51 332.375L1024.4 316.716C1023.42 315.451 1022.96 314.037 1023.01 312.476C1023.13 310.995 1023.67 309.566 1024.63 308.192L1036.41 289.592C1038.54 286.3 1040.58 283.709 1042.53 281.819C1044.62 279.947 1046.94 278.032 1049.47 276.074L1095.26 240.641C1096.76 239.478 1098.07 238.968 1099.2 239.111C1100.46 239.272 1101.67 240.104 1102.83 241.607L1116.97 259.876C1118.13 261.378 1118.6 262.722 1118.38 263.905C1118.3 265.106 1117.51 266.288 1116 267.451L1072.35 301.232L1092.62 296.547C1094.45 296.139 1096.05 296.235 1097.39 296.835C1098.74 297.434 1100 298.486 1101.16 299.988L1105.02 304.971C1106.18 306.474 1106.88 307.953 1107.13 309.41C1107.37 310.866 1107.06 312.431 1106.21 314.104L1096.58 332.551L1140.24 298.77C1141.74 297.607 1143.05 297.097 1144.18 297.24C1145.44 297.401 1146.65 298.233 1147.81 299.736Z" fill="black"/>
<path d="M1161.37 467.189L1159.99 461.303C1159.16 457.345 1158.36 454.065 1157.61 451.464C1156.86 448.863 1156.01 446.566 1155.06 444.573C1154.14 442.674 1153.08 440.827 1151.88 439.032C1150.71 437.331 1149.22 435.325 1147.4 433.013C1145.88 430.913 1145.22 429.132 1145.42 427.669C1145.72 426.172 1146.66 425.128 1148.26 424.536L1163.16 419.003C1165.6 418.099 1167.53 417.971 1168.94 418.619C1170.36 419.268 1171.56 420.208 1172.55 421.44C1175.09 424.55 1177.09 427.22 1178.56 429.448C1180.03 431.677 1181.18 433.917 1182.01 436.167C1182.94 438.382 1183.69 440.825 1184.25 443.495C1184.85 446.259 1185.62 449.761 1186.55 454.001L1187.39 457.533L1188.44 462.101C1189.42 466.751 1190.24 470.394 1190.9 473.029C1191.68 475.724 1192.47 477.991 1193.26 479.832C1194.18 481.731 1195.22 483.531 1196.39 485.232C1197.65 486.898 1199.24 489.028 1201.16 491.621C1202.72 493.815 1203.35 495.66 1203.05 497.157C1202.76 498.655 1201.58 499.786 1199.51 500.551L1185.59 505.719C1183.15 506.624 1181.21 506.705 1179.76 505.963C1178.31 505.22 1177.13 504.327 1176.21 503.282C1173.67 500.172 1171.64 497.456 1170.14 495.133C1168.67 492.905 1167.48 490.683 1166.55 488.467C1165.71 486.217 1165 483.71 1164.4 480.946C1163.8 478.182 1163.05 474.727 1162.15 470.58L1161.37 467.189Z" fill="black"/>
<path d="M1202.41 800.944L1184.42 794.246L1180.49 804.789C1179.59 807.226 1179.58 809.092 1180.49 810.389C1181.49 811.721 1182.92 812.736 1184.8 813.434L1189.58 815.213C1191.45 815.911 1193.15 816.065 1194.69 815.675C1196.31 815.32 1197.58 813.924 1198.49 811.487L1202.41 800.944ZM1128.38 767.626L1136.44 745.977C1137.1 744.196 1137.97 743.024 1139.03 742.459C1140.15 742.024 1141.61 742.137 1143.39 742.8L1234.48 776.709C1236.26 777.372 1237.39 778.217 1237.86 779.246C1238.39 780.404 1238.32 781.873 1237.66 783.653L1220.23 830.465C1216.32 840.962 1211.44 847.358 1205.57 849.655C1199.75 852.08 1193.38 852.002 1186.45 849.42L1179.98 847.013C1176.04 845.548 1172.9 843.683 1170.54 841.418C1168.24 839.281 1167.02 836.534 1166.88 833.175C1164.44 838.027 1160.86 841.336 1156.15 843.103C1151.4 844.964 1146.07 844.795 1140.17 842.597L1110.37 831.504C1108.59 830.841 1107.43 829.931 1106.9 828.773C1106.43 827.745 1106.53 826.34 1107.19 824.559L1115.3 802.77C1115.96 800.989 1116.83 799.817 1117.89 799.252C1119.01 798.817 1120.47 798.93 1122.25 799.593L1143.75 807.599C1145.82 808.367 1147.47 808.503 1148.72 808.008C1150.03 807.642 1151.05 806.475 1151.79 804.507L1159.11 784.827L1131.56 774.57C1129.78 773.907 1128.62 772.997 1128.1 771.84C1127.62 770.811 1127.72 769.406 1128.38 767.626Z" fill="black"/>
<path d="M1055.97 909.534L1093.12 850.68C1094.14 849.074 1095.22 848.103 1096.38 847.769C1097.57 847.573 1098.96 847.983 1100.57 848.997L1182.76 900.885C1184.37 901.899 1185.3 902.958 1185.55 904.062C1185.83 905.303 1185.46 906.727 1184.45 908.334L1147.29 967.187C1146.28 968.794 1145.18 969.695 1143.99 969.891C1142.83 970.225 1141.45 969.885 1139.84 968.871L1125 959.502C1123.4 958.488 1122.45 957.36 1122.17 956.118C1121.92 955.015 1122.31 953.66 1123.32 952.053L1145.42 917.046L1135.65 910.88L1120.04 935.613C1119.02 937.22 1117.92 938.121 1116.74 938.317C1115.58 938.651 1114.2 938.311 1112.59 937.297L1099.02 928.729C1097.41 927.715 1096.47 926.587 1096.19 925.345C1095.94 924.242 1096.32 922.887 1097.33 921.28L1112.95 896.547L1102.04 889.66L1079.94 924.668C1078.93 926.274 1077.83 927.176 1076.64 927.372C1075.48 927.706 1074.1 927.365 1072.49 926.351L1057.65 916.982C1056.04 915.968 1055.1 914.84 1054.82 913.599C1054.57 912.495 1054.95 911.14 1055.97 909.534Z" fill="black"/>
<path d="M983.628 989.637L1016.36 955.559C1025.02 946.544 1033.26 941.568 1041.09 940.632C1048.86 939.768 1056.49 942.938 1063.99 950.142L1097.74 982.561C1105.24 989.765 1108.72 997.262 1108.17 1005.05C1107.55 1012.92 1102.91 1021.36 1094.25 1030.37L1068.27 1057.42C1066.96 1058.79 1065.7 1059.45 1064.5 1059.4C1063.3 1059.5 1062.01 1058.89 1060.64 1057.57L1047.55 1045C1046.18 1043.68 1045.48 1042.39 1045.46 1041.12C1045.43 1039.98 1046.08 1038.73 1047.4 1037.36L1069.01 1014.86C1071.15 1012.62 1072.28 1010.52 1072.38 1008.53C1072.55 1006.62 1071.74 1004.8 1069.94 1003.07L1044.08 978.233C1042.28 976.501 1040.56 975.617 1038.93 975.579C1037.24 975.613 1035.59 976.459 1034 978.118L1023.92 988.612L1040.8 1004.82C1042.17 1006.14 1042.86 1007.36 1042.89 1008.49C1042.91 1009.76 1042.27 1011.09 1040.95 1012.46L1024.85 1029.23C1023.53 1030.6 1022.27 1031.26 1021.07 1031.21C1019.87 1031.31 1018.58 1030.7 1017.21 1029.38L983.782 997.273C982.412 995.957 981.714 994.662 981.688 993.39C981.665 992.259 982.312 991.008 983.628 989.637Z" fill="black"/>
<path d="M961.014 1008.09C962.57 1007 963.946 1006.52 965.142 1006.66C966.314 1006.94 967.445 1007.86 968.535 1009.41L978.774 1024.03C979.864 1025.59 980.311 1026.92 980.115 1028.04C979.894 1029.29 979.005 1030.46 977.449 1031.55L965.285 1040.07L994.198 1081.35L1006.36 1072.84C1007.92 1071.75 1009.29 1071.27 1010.49 1071.41C1011.66 1071.69 1012.79 1072.6 1013.88 1074.16L1024.29 1089.03C1025.38 1090.58 1025.83 1091.92 1025.63 1093.03C1025.41 1094.29 1024.53 1095.46 1022.97 1096.55L970.629 1133.21C969.072 1134.3 967.708 1134.7 966.537 1134.42C965.341 1134.28 964.198 1133.44 963.108 1131.88L952.696 1117.01C951.606 1115.46 951.171 1114.05 951.392 1112.8C951.589 1111.68 952.465 1110.58 954.021 1109.49L965.939 1101.15L937.027 1059.86L925.109 1068.21C923.553 1069.3 922.189 1069.71 921.017 1069.43C919.821 1069.29 918.678 1068.44 917.588 1066.88L907.348 1052.26C906.258 1050.71 905.824 1049.3 906.045 1048.05C906.241 1046.94 907.117 1045.83 908.674 1044.74L961.014 1008.09Z" fill="black"/>
<path d="M840.827 1078.78L884.015 1059.24C885.746 1058.46 887.186 1058.25 888.336 1058.6C889.436 1059.09 890.377 1060.21 891.16 1061.94L898.393 1077.93C899.176 1079.66 899.368 1081.05 898.969 1082.11C898.52 1083.3 897.429 1084.29 895.698 1085.07L858.934 1101.7C857.75 1102.24 857.049 1102.99 856.832 1103.97C856.565 1105.08 856.679 1106.18 857.173 1107.27C857.874 1108.82 858.708 1109.82 859.676 1110.26C860.552 1110.74 861.603 1110.76 862.829 1110.31L884.627 1103.91C891.417 1101.94 897.513 1101.7 902.915 1103.21C908.225 1104.76 912.611 1109.36 916.073 1117.01L922.564 1131.36C926.067 1139.11 926.24 1146.16 923.083 1152.53C919.968 1158.99 913.991 1164.22 905.153 1168.21L866.885 1185.52C865.154 1186.31 863.739 1186.45 862.639 1185.96C861.489 1185.6 860.523 1184.56 859.74 1182.83L852.383 1166.57C851.6 1164.83 851.434 1163.37 851.883 1162.18C852.282 1161.12 853.347 1160.2 855.078 1159.42L886.922 1145.02C888.107 1144.48 888.832 1143.66 889.099 1142.55C889.407 1141.53 889.294 1140.43 888.758 1139.25C888.222 1138.06 887.45 1137.2 886.441 1136.67C885.432 1136.14 884.315 1136.1 883.09 1136.54L861.489 1143.02C854.699 1144.99 848.604 1145.23 843.202 1143.72C837.801 1142.21 833.369 1137.63 829.907 1129.98L823.416 1115.63C819.913 1107.88 819.765 1100.76 822.972 1094.26C826.129 1087.89 832.08 1082.73 840.827 1078.78Z" fill="black"/>
<path d="M745.188 1108.93L768.842 1103.37C770.692 1102.93 772.146 1103 773.206 1103.58C774.19 1104.27 774.9 1105.54 775.336 1107.39L792.205 1179.08L813.669 1174.03C815.518 1173.59 816.973 1173.66 818.032 1174.24C819.017 1174.93 819.727 1176.2 820.162 1178.05L824.319 1195.72C824.755 1197.57 824.674 1198.97 824.079 1199.93C823.409 1201.02 822.149 1201.78 820.3 1202.21L743.205 1220.35C741.356 1220.79 739.939 1220.66 738.954 1219.96C737.895 1219.39 737.147 1218.18 736.712 1216.33L732.555 1198.66C732.12 1196.81 732.237 1195.35 732.907 1194.27C733.502 1193.3 734.725 1192.61 736.574 1192.17L758.038 1187.12L741.169 1115.43C740.734 1113.58 740.851 1112.11 741.521 1111.03C742.116 1110.07 743.339 1109.37 745.188 1108.93Z" fill="black"/>
<path d="M621.456 1120.91L691.009 1118.37C692.908 1118.3 694.322 1118.65 695.25 1119.42C696.083 1120.29 696.533 1121.67 696.603 1123.57L700.149 1220.71C700.218 1222.61 699.868 1223.97 699.097 1224.8C698.231 1225.73 696.848 1226.23 694.949 1226.3L625.396 1228.84C623.497 1228.91 622.131 1228.51 621.299 1227.64C620.371 1226.87 619.872 1225.54 619.802 1223.64L619.162 1206.1C619.093 1204.2 619.491 1202.79 620.358 1201.86C621.128 1201.03 622.463 1200.58 624.361 1200.51L665.734 1199L665.313 1187.46L636.082 1188.52C634.183 1188.59 632.818 1188.19 631.985 1187.32C631.057 1186.56 630.558 1185.22 630.489 1183.33L629.903 1167.29C629.834 1165.39 630.232 1163.97 631.099 1163.04C631.869 1162.21 633.204 1161.76 635.102 1161.69L664.333 1160.63L663.862 1147.73L622.49 1149.24C620.591 1149.31 619.226 1148.91 618.393 1148.04C617.465 1147.28 616.966 1145.94 616.897 1144.04L616.256 1126.51C616.187 1124.61 616.586 1123.19 617.452 1122.26C618.222 1121.43 619.557 1120.98 621.456 1120.91Z" fill="black"/>
<path d="M548.786 1194.3L552.04 1175.38L540.952 1173.47C538.39 1173.03 536.555 1173.37 535.448 1174.5C534.324 1175.73 533.592 1177.33 533.253 1179.3L532.389 1184.33C532.05 1186.3 532.214 1188 532.88 1189.43C533.53 1190.97 535.136 1191.95 537.699 1192.39L548.786 1194.3ZM567.834 1115.39L590.6 1119.3C592.473 1119.62 593.785 1120.25 594.536 1121.2C595.172 1122.22 595.329 1123.67 595.007 1125.54L578.535 1221.33C578.213 1223.2 577.59 1224.47 576.666 1225.12C575.627 1225.85 574.171 1226.06 572.298 1225.74L523.071 1217.27C512.033 1215.38 504.842 1211.76 501.499 1206.41C498.041 1201.15 496.939 1194.87 498.193 1187.58L499.362 1180.78C500.074 1176.64 501.325 1173.2 503.114 1170.47C504.788 1167.81 507.263 1166.11 510.539 1165.35C505.318 1163.84 501.404 1160.94 498.796 1156.63C496.089 1152.31 495.269 1147.05 496.337 1140.84L501.726 1109.5C502.048 1107.63 502.729 1106.32 503.768 1105.59C504.692 1104.93 506.09 1104.77 507.963 1105.09L530.877 1109.03C532.749 1109.35 534.061 1109.98 534.813 1110.93C535.448 1111.95 535.605 1113.4 535.283 1115.27L531.394 1137.89C531.021 1140.05 531.194 1141.71 531.911 1142.85C532.513 1144.07 533.849 1144.85 535.919 1145.21L556.615 1148.77L561.597 1119.79C561.919 1117.92 562.6 1116.62 563.639 1115.88C564.563 1115.23 565.962 1115.06 567.834 1115.39Z" fill="black"/>
<path d="M424.065 1073.7L444.195 1083.75C445.895 1084.6 446.969 1085.59 447.417 1086.7C447.73 1087.87 447.463 1089.3 446.614 1091L403.189 1177.96C402.34 1179.66 401.379 1180.69 400.306 1181.05C399.099 1181.45 397.645 1181.23 395.946 1180.38L381.989 1173.41C380.289 1172.56 378.992 1171.58 378.097 1170.46C377.112 1169.3 376.373 1167.75 375.881 1165.83L364.723 1123.04L350.449 1151.62C349.6 1153.32 348.639 1154.35 347.566 1154.71C346.359 1155.11 344.905 1154.89 343.206 1154.04L323.076 1143.99C321.376 1143.14 320.369 1142.13 320.056 1140.97C319.608 1139.85 319.808 1138.45 320.657 1136.75L364.082 1049.78C364.931 1048.09 365.959 1047.03 367.166 1046.63C368.239 1046.27 369.626 1046.52 371.325 1047.37L391.455 1057.42C393.155 1058.27 394.229 1059.25 394.677 1060.37C394.99 1061.53 394.723 1062.96 393.874 1064.66L385.631 1081.17L394.707 1120.41L416.822 1076.12C417.671 1074.42 418.699 1073.37 419.906 1072.97C420.979 1072.61 422.366 1072.85 424.065 1073.7Z" fill="black"/>
<path d="M259.05 997.201C261.95 993.631 265.141 990.812 268.624 988.744C271.965 986.692 275.846 985.721 280.265 985.831C284.543 985.956 289.523 987.359 295.203 990.04C300.807 992.658 307.218 996.899 314.437 1002.76C321.656 1008.62 327.161 1014.06 330.951 1019.07C334.74 1024.08 337.174 1028.7 338.252 1032.92C339.189 1037.16 339.035 1041.16 337.789 1044.91C336.403 1048.68 334.26 1052.35 331.36 1055.92L299.115 1095.63C296.215 1099.2 293.094 1102.01 289.752 1104.06C286.27 1106.13 282.358 1107.14 278.017 1107.09C273.598 1106.98 268.548 1105.59 262.867 1102.91C257.186 1100.23 250.736 1095.95 243.517 1090.09C236.297 1084.23 230.832 1078.82 227.12 1073.88C223.33 1068.87 220.967 1064.24 220.03 1060C219.015 1055.7 219.201 1051.67 220.587 1047.9C221.833 1044.14 223.905 1040.48 226.805 1036.91L259.05 997.201ZM301.524 1038.65C302.784 1037.1 303.274 1035.31 302.992 1033.27C302.647 1031.32 300.379 1028.64 296.187 1025.23C291.995 1021.83 288.907 1020.16 286.923 1020.22C284.876 1020.36 283.222 1021.21 281.962 1022.76L256.525 1054.09C255.327 1055.56 254.901 1057.28 255.246 1059.23C255.527 1061.26 257.764 1063.98 261.956 1067.39C266.148 1070.79 269.267 1072.42 271.314 1072.28C273.298 1072.22 274.889 1071.45 276.087 1069.97L301.524 1038.65Z" fill="black"/>
<path d="M129.076 965.579L115.398 947.903C114.236 946.401 113.765 945.058 113.988 943.874C114.07 942.673 114.862 941.491 116.365 940.328L162.393 904.711C164.924 902.752 167.389 901.035 169.787 899.559C172.044 898.065 175.034 896.7 178.756 895.463L199.48 888.911C200.972 888.388 202.459 888.186 203.941 888.303C205.283 888.403 206.443 889.086 207.422 890.351L219.631 906.129C220.61 907.395 221.221 908.755 221.463 910.212C221.705 911.669 221.316 913.045 220.295 914.34L205.181 934.76C204.573 935.609 204.304 936.323 204.373 936.902C204.301 937.463 204.449 937.981 204.816 938.456L205.643 939.524C206.01 939.998 206.504 940.311 207.127 940.461C207.609 940.594 208.337 940.473 209.312 940.098L232.963 930.711C234.394 930.11 235.763 929.999 237.068 930.379C238.295 930.821 239.398 931.674 240.377 932.94L252.494 948.599C253.474 949.865 253.935 951.278 253.878 952.839C253.761 954.321 253.222 955.749 252.263 957.124L240.482 975.723C238.351 979.016 236.31 981.607 234.358 983.496C232.266 985.368 229.954 987.283 227.424 989.241L181.632 1024.67C180.129 1025.84 178.817 1026.35 177.694 1026.2C176.432 1026.04 175.219 1025.21 174.056 1023.71L159.92 1005.44C158.757 1003.94 158.287 1002.59 158.509 1001.41C158.591 1000.21 159.383 999.027 160.886 997.864L204.542 964.083L184.27 968.769C182.436 969.176 180.845 969.08 179.496 968.48C178.146 967.881 176.89 966.83 175.728 965.327L171.872 960.344C170.709 958.842 170.007 957.362 169.765 955.906C169.523 954.449 169.83 952.884 170.685 951.211L180.308 932.764L136.652 966.545C135.149 967.708 133.836 968.218 132.714 968.075C131.452 967.914 130.239 967.082 129.076 965.579Z" fill="black"/>
<path d="M115.52 798.126L116.905 804.012C117.734 807.971 118.525 811.25 119.277 813.851C120.029 816.452 120.882 818.749 121.835 820.742C122.753 822.641 123.812 824.488 125.011 826.283C126.176 827.984 127.668 829.99 129.486 832.302C131.012 834.402 131.673 836.183 131.469 837.646C131.172 839.143 130.226 840.187 128.632 840.779L113.726 846.312C111.288 847.216 109.363 847.345 107.948 846.696C106.534 846.048 105.332 845.107 104.341 843.875C101.8 840.765 99.7961 838.095 98.3289 835.867C96.8616 833.638 95.7104 831.399 94.8753 829.149C93.9464 826.933 93.1997 824.491 92.6351 821.82C92.0358 819.056 91.2692 815.554 90.3354 811.314L89.5046 807.782L88.449 803.214C87.4697 798.564 86.6509 794.921 85.9926 792.286C85.2058 789.591 84.4175 787.324 83.6278 785.484C82.7096 783.584 81.6681 781.784 80.5034 780.083C79.2449 778.417 77.6544 776.287 75.732 773.694C74.171 771.5 73.5393 769.655 73.8369 768.158C74.1345 766.661 75.3146 765.529 77.3771 764.764L91.299 759.596C93.7365 758.692 95.6797 758.61 97.1285 759.352C98.5773 760.095 99.7623 760.988 100.683 762.033C103.225 765.143 105.246 767.859 106.748 770.182C108.215 772.411 109.413 774.633 110.342 776.848C111.177 779.098 111.895 781.605 112.494 784.369C113.093 787.133 113.843 790.589 114.742 794.735L115.52 798.126Z" fill="black"/>
</svg>
