<svg width="1987" height="2007" viewBox="0 0 1987 2007" fill="none" xmlns="http://www.w3.org/2000/svg">
<path d="M155.789 750.342L148.473 773.515C147.901 775.326 147.099 776.541 146.065 777.158C144.966 777.65 143.51 777.61 141.698 777.038L71.4651 754.866L64.8269 775.893C64.2549 777.705 63.452 778.919 62.4182 779.537C61.3191 780.029 59.8636 779.989 58.0517 779.417L40.7438 773.953C38.9319 773.381 37.765 772.593 37.2429 771.589C36.6556 770.46 36.648 768.989 37.22 767.177L61.0633 691.652C61.6353 689.84 62.4709 688.688 63.57 688.196C64.6038 687.579 66.0267 687.556 67.8385 688.128L85.1465 693.592C86.9583 694.164 88.1579 695.015 88.7452 696.144C89.2673 697.148 89.2423 698.555 88.6703 700.367L82.0321 721.394L152.265 743.567C154.077 744.139 155.277 744.989 155.864 746.119C156.386 747.122 156.361 748.53 155.789 750.342Z" fill="black"/>
<path d="M112.528 637.657L129.992 645.634L134.668 635.402C135.749 633.037 135.885 631.176 135.076 629.817C134.177 628.417 132.818 627.301 130.999 626.47L126.36 624.351C124.54 623.52 122.853 623.244 121.296 623.522C119.649 623.759 118.284 625.06 117.204 627.424L112.528 637.657ZM183.96 676.224L174.359 697.234C173.569 698.962 172.623 700.069 171.522 700.555C170.37 700.909 168.931 700.691 167.202 699.902L78.7901 659.515C77.0619 658.725 76.0002 657.801 75.605 656.741C75.1605 655.548 75.3331 654.088 76.1228 652.36L96.8843 606.929C101.54 596.742 106.878 590.715 112.898 588.848C118.87 586.848 125.221 587.386 131.952 590.461L138.228 593.328C142.048 595.073 145.053 597.16 147.241 599.589C149.38 601.885 150.397 604.713 150.291 608.073C153.081 603.411 156.89 600.368 161.718 598.946C166.588 597.432 171.888 597.984 177.618 600.602L206.543 613.815C208.272 614.604 209.358 615.595 209.803 616.788C210.198 617.848 210 619.242 209.211 620.97L199.547 642.117C198.757 643.845 197.811 644.952 196.71 645.438C195.559 645.792 194.119 645.574 192.391 644.784L171.515 635.249C169.514 634.334 167.872 634.079 166.588 634.482C165.255 634.753 164.152 635.843 163.279 637.753L154.551 656.853L181.293 669.069C183.021 669.858 184.107 670.849 184.552 672.042C184.947 673.102 184.75 674.496 183.96 676.224Z" fill="black"/>
<path d="M177.037 524.755L192.656 542.797L205.117 522.814L182.037 516.736C181.062 516.6 180.272 516.638 179.668 516.85C179.117 516.978 178.683 517.297 178.365 517.806L176.381 520.988C176.063 521.497 175.942 522.069 176.017 522.705C176.145 523.256 176.485 523.939 177.037 524.755ZM232.852 569.619C234.465 570.624 235.415 571.746 235.702 572.986C235.958 574.088 235.583 575.445 234.578 577.057L222.911 595.768C221.905 597.38 220.825 598.356 219.67 598.697C218.483 598.9 217.083 598.499 215.471 597.494L181.864 576.547C179.318 574.96 176.628 572.753 173.795 569.927C171.014 567.015 167.947 563.336 164.592 558.888L142.6 529.804C141.475 528.395 140.89 526.97 140.846 525.529C140.855 524.003 141.389 522.391 142.447 520.694L163.797 486.455C164.802 484.843 165.962 483.739 167.276 483.144C168.643 482.464 170.206 482.319 171.966 482.709L207.768 489.646C213.239 490.7 217.867 491.876 221.653 493.175C225.492 494.39 228.685 495.79 231.231 497.377L264.837 518.324C266.45 519.329 267.4 520.451 267.687 521.691C267.943 522.793 267.568 524.15 266.563 525.762L254.578 544.982C253.52 546.679 252.387 547.74 251.179 548.166C249.939 548.453 248.513 548.095 246.9 547.09L229.078 535.982L215.03 558.511L232.852 569.619Z" fill="black"/>
<path d="M300.514 481.307L285.969 499.445C284.78 500.927 283.592 501.769 282.405 501.971C281.202 502.032 279.86 501.469 278.377 500.28L202.535 439.488C201.052 438.299 200.249 437.143 200.125 436.018C199.986 434.753 200.511 433.38 201.699 431.897L243.552 379.706C244.741 378.223 245.936 377.452 247.139 377.391C248.326 377.189 249.661 377.682 251.144 378.87L265.071 390.034C266.554 391.223 267.365 392.449 267.504 393.714C267.628 394.839 267.095 396.142 265.907 397.625L241.978 427.465L254.15 437.222L270.478 416.86C271.667 415.378 272.862 414.606 274.065 414.545C275.252 414.343 276.587 414.836 278.07 416.025L292.115 427.283C293.597 428.471 294.408 429.698 294.547 430.963C294.671 432.087 294.138 433.391 292.95 434.873L276.622 455.235L299.679 473.716C301.161 474.905 301.972 476.131 302.111 477.396C302.235 478.521 301.703 479.824 300.514 481.307Z" fill="black"/>
<path d="M363.954 409.247L347.524 425.697C346.181 427.042 344.908 427.75 343.706 427.821C342.504 427.751 341.231 427.045 339.886 425.703L271.099 357.028C269.754 355.686 269.082 354.449 269.081 353.318C269.08 352.045 269.751 350.737 271.094 349.392L318.37 302.058C319.713 300.714 320.985 300.077 322.188 300.146C323.39 300.075 324.663 300.71 326.008 302.053L338.64 314.664C339.985 316.007 340.657 317.314 340.658 318.587C340.659 319.718 339.988 320.956 338.645 322.3L311.615 349.363L322.655 360.385L341.099 341.919C342.442 340.574 343.714 339.937 344.917 340.007C346.119 339.935 347.392 340.571 348.737 341.913L361.475 354.631C362.82 355.973 363.492 357.281 363.493 358.553C363.494 359.685 362.823 360.922 361.481 362.267L343.036 380.733L363.948 401.611C365.293 402.954 365.966 404.261 365.967 405.534C365.967 406.665 365.296 407.903 363.954 409.247Z" fill="black"/>
<path d="M414.897 360.595C413.418 361.787 412.077 362.354 410.874 362.296C409.686 362.097 408.496 361.258 407.303 359.779L396.101 345.881C394.909 344.402 394.373 343.1 394.494 341.975C394.63 340.71 395.438 339.481 396.917 338.289L408.481 328.972L376.851 289.733L365.287 299.05C363.808 300.242 362.467 300.809 361.264 300.751C360.076 300.552 358.886 299.713 357.694 298.234L346.303 284.103C345.111 282.624 344.575 281.322 344.696 280.197C344.832 278.932 345.64 277.703 347.119 276.511L396.877 236.419C398.356 235.227 399.69 234.73 400.878 234.929C402.081 234.987 403.278 235.756 404.471 237.235L415.861 251.366C417.054 252.845 417.582 254.217 417.446 255.483C417.325 256.608 416.525 257.766 415.045 258.958L403.715 268.087L435.345 307.326L446.675 298.197C448.155 297.005 449.488 296.509 450.676 296.707C451.879 296.766 453.076 297.534 454.269 299.013L465.471 312.911C466.663 314.39 467.192 315.762 467.056 317.028C466.935 318.152 466.135 319.311 464.655 320.503L414.897 360.595Z" fill="black"/>
<path d="M547.084 265.641L516.258 285.371C505.73 292.11 496.549 295.018 488.715 294.096C480.965 293.119 474.286 288.252 468.678 279.494L443.522 240.208C437.914 231.449 436.289 223.347 438.646 215.902C441.034 208.319 447.492 201.158 458.02 194.419L488.846 174.689C490.446 173.664 491.826 173.316 492.985 173.642C494.175 173.831 495.282 174.725 496.306 176.325L506.093 191.61C507.118 193.21 507.494 194.632 507.221 195.875C506.979 196.98 506.058 198.045 504.457 199.069L479.063 215.322C476.452 216.994 474.866 218.781 474.303 220.684C473.687 222.503 474.053 224.466 475.401 226.571L494.652 256.636C496 258.741 497.629 259.895 499.54 260.097C501.396 260.215 503.63 259.438 506.241 257.767L531.635 241.513C533.235 240.489 534.615 240.14 535.774 240.467C536.964 240.655 538.071 241.55 539.095 243.15L548.721 258.182C549.745 259.782 550.121 261.204 549.849 262.447C549.606 263.552 548.685 264.617 547.084 265.641Z" fill="black"/>
<path d="M669.569 206.049L636.075 220.804C624.635 225.843 615.116 227.304 607.518 225.187C600.01 223.031 594.16 217.194 589.966 207.677L571.154 164.988C566.96 155.471 566.6 147.216 570.075 140.222C573.601 133.096 581.083 127.013 592.523 121.974L626.017 107.22C627.756 106.454 629.173 106.322 630.268 106.823C631.414 107.192 632.37 108.246 633.136 109.985L640.456 126.594C641.222 128.332 641.374 129.795 640.914 130.981C640.504 132.036 639.43 132.946 637.691 133.712L610.1 145.866C607.263 147.116 605.42 148.638 604.571 150.432C603.683 152.135 603.742 154.13 604.75 156.418L619.147 189.086C620.155 191.374 621.587 192.764 623.444 193.258C625.26 193.66 627.587 193.236 630.424 191.986L658.016 179.832C659.754 179.066 661.171 178.934 662.266 179.435C663.413 179.804 664.369 180.858 665.135 182.597L672.333 198.931C673.099 200.67 673.252 202.132 672.792 203.319C672.382 204.373 671.308 205.284 669.569 206.049Z" fill="black"/>
<path d="M773.119 142.674C774.456 147.076 775.008 151.298 774.773 155.34C774.605 159.258 773.24 163.018 770.676 166.618C768.179 170.094 764.23 173.437 758.83 176.645C753.525 179.824 746.423 182.766 737.525 185.469C728.627 188.172 721.041 189.693 714.768 190.031C708.495 190.369 703.306 189.803 699.202 188.333C695.163 186.738 691.936 184.373 689.521 181.24C687.172 177.982 685.329 174.153 683.991 169.752L669.117 120.812C667.779 116.411 667.194 112.251 667.362 108.333C667.597 104.291 668.948 100.483 671.416 96.9117C673.98 93.311 677.962 89.9065 683.362 86.6981C688.763 83.4898 695.912 80.5339 704.81 77.8305C713.709 75.1272 721.247 73.621 727.424 73.3121C733.696 72.9741 738.852 73.6026 742.89 75.1976C747.024 76.7635 750.266 79.1754 752.615 82.4333C755.03 85.5665 756.907 89.3337 758.244 93.7349L773.119 142.674ZM715 154.687C715.582 156.601 716.794 158.009 718.636 158.913C720.45 159.721 723.94 159.34 729.106 157.77C734.273 156.2 737.385 154.575 738.442 152.896C739.471 151.12 739.694 149.276 739.112 147.362L727.379 108.756C726.826 106.938 725.643 105.625 723.83 104.817C721.988 103.914 718.483 104.247 713.316 105.817C708.149 107.386 705.052 109.059 704.024 110.834C702.967 112.514 702.714 114.263 703.267 116.081L715 154.687Z" fill="black"/>
<path d="M830.597 160.148L808.402 163.843C806.528 164.155 805.081 163.991 804.062 163.349C803.125 162.593 802.501 161.278 802.188 159.403L786.22 63.5241C785.908 61.6499 786.081 60.2525 786.738 59.332C787.478 58.2964 788.785 57.6227 790.659 57.3106L806.048 54.7488C807.922 54.4368 809.549 54.47 810.93 54.8483C812.41 55.2103 813.914 56.0243 815.443 57.2905L849.619 85.3592L844.37 53.8433C844.057 51.9692 844.23 50.5718 844.888 49.6513C845.628 48.6157 846.935 47.942 848.809 47.6299L871.004 43.935C872.878 43.623 874.283 43.8452 875.22 44.6016C876.24 45.2429 876.905 46.5007 877.218 48.3749L893.186 144.254C893.498 146.128 893.284 147.583 892.544 148.619C891.887 149.539 890.621 150.156 888.747 150.468L866.552 154.163C864.678 154.475 863.231 154.31 862.212 153.669C861.275 152.912 860.65 151.597 860.338 149.723L857.307 131.523L826.904 105.107L835.036 153.935C835.349 155.809 835.135 157.264 834.395 158.3C833.737 159.22 832.471 159.836 830.597 160.148Z" fill="black"/>
<path d="M968.593 145.444L944.314 146.456C942.416 146.535 941 146.194 940.068 145.432C939.231 144.566 938.773 143.184 938.694 141.286L935.625 67.6995L913.595 68.6178C911.696 68.697 910.281 68.3556 909.348 67.5938C908.511 66.7279 908.053 65.3458 907.974 63.4474L907.218 45.3132C907.139 43.4148 907.482 42.0493 908.248 41.2167C909.11 40.28 910.49 39.7721 912.388 39.693L991.52 36.3946C993.418 36.3155 994.786 36.7089 995.622 37.5748C996.555 38.3366 997.061 39.6667 997.14 41.565L997.896 59.6993C997.975 61.5976 997.584 63.0151 996.722 63.9518C995.956 64.7845 994.624 65.2403 992.726 65.3195L970.695 66.2378L973.764 139.824C973.843 141.722 973.451 143.14 972.59 144.076C971.824 144.909 970.492 145.365 968.593 145.444Z" fill="black"/>
<path d="M1059.83 66.3846L1058.27 85.5214L1069.49 86.4328C1072.08 86.6434 1073.87 86.1373 1074.88 84.9145C1075.89 83.592 1076.47 81.934 1076.64 79.9406L1077.05 74.8574C1077.21 72.8639 1076.9 71.1829 1076.1 69.8143C1075.32 68.346 1073.63 67.5065 1071.04 67.2959L1059.83 66.3846ZM1047.88 146.681L1024.86 144.81C1022.96 144.656 1021.6 144.144 1020.77 143.273C1020.05 142.311 1019.76 140.884 1019.91 138.99L1027.79 42.1096C1027.95 40.2158 1028.45 38.9027 1029.32 38.1701C1030.29 37.346 1031.72 37.0108 1033.61 37.1647L1083.4 41.211C1094.56 42.1182 1102.04 45.0842 1105.85 50.109C1109.76 55.0422 1111.42 61.1966 1110.82 68.5723L1110.26 75.4496C1109.92 79.6358 1108.98 83.1713 1107.44 86.0561C1106.01 88.8494 1103.7 90.7683 1100.5 91.8129C1105.84 92.8484 1109.99 95.3935 1112.97 99.4483C1116.06 103.511 1117.34 108.682 1116.83 114.962L1114.25 146.657C1114.1 148.551 1113.54 149.91 1112.57 150.734C1111.7 151.466 1110.33 151.756 1108.43 151.602L1085.26 149.718C1083.37 149.565 1082 149.052 1081.17 148.182C1080.45 147.22 1080.16 145.793 1080.31 143.899L1082.17 121.024C1082.35 118.832 1082.03 117.2 1081.22 116.131C1080.51 114.97 1079.11 114.304 1077.02 114.134L1056.09 112.433L1053.7 141.736C1053.55 143.63 1052.99 144.989 1052.02 145.813C1051.15 146.545 1049.78 146.835 1047.88 146.681Z" fill="black"/>
<path d="M1229.13 146.609C1228.17 151.107 1226.61 155.068 1224.45 158.491C1222.4 161.838 1219.39 164.466 1215.4 166.375C1211.53 168.207 1206.46 169.219 1200.18 169.411C1194 169.624 1186.36 168.759 1177.26 166.816C1168.17 164.872 1160.8 162.53 1155.14 159.788C1149.49 157.047 1145.23 154.039 1142.35 150.765C1139.59 147.414 1137.91 143.784 1137.31 139.873C1136.84 135.885 1137.08 131.642 1138.04 127.144L1148.73 77.1239C1149.69 72.6255 1151.2 68.703 1153.24 65.3564C1155.41 61.9329 1158.43 59.2562 1162.32 57.3263C1166.31 55.4174 1171.44 54.3668 1177.72 54.1746C1184 53.9824 1191.69 54.858 1200.78 56.8013C1209.88 58.7446 1217.2 61.0766 1222.75 63.7972C1228.41 66.5388 1232.61 69.5849 1235.37 72.9358C1238.23 76.3075 1239.9 79.9872 1240.38 83.9749C1240.97 87.8857 1240.79 92.0902 1239.83 96.5886L1229.13 146.609ZM1172.47 128.978C1172.05 130.934 1172.43 132.753 1173.6 134.436C1174.8 136.02 1178.03 137.377 1183.32 138.505C1188.6 139.634 1192.11 139.719 1193.84 138.761C1195.6 137.706 1196.69 136.2 1197.11 134.244L1205.55 94.7855C1205.94 92.9275 1205.54 91.2061 1204.35 89.6214C1203.17 87.9389 1199.95 86.5334 1194.67 85.405C1189.39 84.2767 1185.87 84.2403 1184.11 85.2959C1182.37 86.2537 1181.3 87.6617 1180.9 89.5197L1172.47 128.978Z" fill="black"/>
<path d="M1321.85 207.576L1249.77 182.4C1247.98 181.773 1246.79 180.934 1246.2 179.882C1245.74 178.768 1245.83 177.315 1246.45 175.521L1278.52 83.7621C1279.14 81.9685 1279.97 80.826 1280.99 80.3345C1282.13 79.7817 1283.6 79.8186 1285.4 80.4451L1307.35 88.1119C1309.14 88.7385 1310.27 89.6085 1310.72 90.7219C1311.31 91.7739 1311.29 93.1967 1310.66 94.9903L1286.17 165.084L1305.57 171.861L1313.59 148.921C1314.21 147.127 1315.04 145.985 1316.05 145.493C1317.2 144.94 1318.67 144.977 1320.46 145.604L1341 152.776C1342.79 153.403 1343.92 154.272 1344.38 155.386C1344.96 156.438 1344.94 157.861 1344.31 159.654L1328.73 204.259C1328.1 206.053 1327.21 207.226 1326.07 207.779C1325.05 208.271 1323.64 208.203 1321.85 207.576Z" fill="black"/>
<path d="M1355.08 239.121L1344.59 234.284C1342.87 233.488 1341.79 232.493 1341.35 231.299C1340.95 230.237 1341.16 228.844 1341.95 227.119L1344.47 221.671C1345.26 219.946 1346.19 218.887 1347.25 218.496C1348.45 218.056 1349.91 218.233 1351.63 219.029L1361.03 223.364C1362.21 223.908 1363.27 224.009 1364.2 223.667C1365.17 223.234 1365.92 222.427 1366.47 221.246L1367.41 219.203L1352.56 212.356C1350.84 211.56 1349.74 210.611 1349.25 209.507C1348.9 208.355 1349.13 206.916 1349.92 205.191L1359.22 185.033C1360.02 183.308 1360.95 182.25 1362.01 181.858C1363.21 181.418 1364.66 181.596 1366.39 182.392L1393.9 195.082C1395.63 195.878 1396.67 196.852 1397.02 198.004C1397.5 199.107 1397.34 200.521 1396.55 202.247L1384.73 227.852C1381.55 234.753 1377.32 239.025 1372.05 240.667C1366.82 242.442 1361.17 241.927 1355.08 239.121ZM1398.93 184.186L1371.42 171.496C1369.69 170.7 1368.59 169.75 1368.11 168.647C1367.76 167.495 1367.98 166.056 1368.78 164.331L1381.53 136.682C1382.33 134.957 1383.26 133.899 1384.32 133.507C1385.51 133.067 1386.97 133.245 1388.7 134.04L1416.21 146.731C1417.94 147.526 1418.98 148.5 1419.33 149.653C1419.81 150.756 1419.65 152.17 1418.86 153.895L1406.1 181.544C1405.3 183.269 1404.31 184.352 1403.11 184.792C1402.05 185.184 1400.66 184.982 1398.93 184.186Z" fill="black"/>
<path d="M1437.84 264.528C1436.24 263.513 1435.27 262.427 1434.93 261.269C1434.74 260.081 1435.15 258.684 1436.17 257.079L1445.71 241.993C1446.72 240.387 1447.78 239.46 1448.89 239.212C1450.13 238.932 1451.55 239.3 1453.16 240.315L1465.71 248.251L1492.65 205.656L1480.1 197.72C1478.49 196.705 1477.52 195.619 1477.19 194.462C1477 193.274 1477.41 191.877 1478.42 190.271L1488.12 174.932C1489.14 173.326 1490.2 172.399 1491.3 172.15C1492.55 171.871 1493.97 172.238 1495.58 173.254L1549.59 207.402C1551.19 208.417 1552.09 209.519 1552.29 210.707C1552.62 211.864 1552.28 213.245 1551.26 214.851L1541.56 230.19C1540.55 231.796 1539.42 232.739 1538.18 233.019C1537.07 233.267 1535.72 232.884 1534.11 231.868L1521.81 224.093L1494.87 266.688L1507.17 274.463C1508.77 275.478 1509.68 276.58 1509.87 277.768C1510.2 278.925 1509.86 280.307 1508.85 281.912L1499.3 296.998C1498.29 298.604 1497.16 299.547 1495.92 299.826C1494.81 300.075 1493.46 299.691 1491.85 298.676L1437.84 264.528Z" fill="black"/>
<path d="M1535.97 331.368L1518.51 317.174C1517.04 315.975 1516.2 314.782 1516.01 313.593C1515.96 312.39 1516.53 311.052 1517.73 309.578L1579.06 234.174C1580.26 232.7 1581.43 231.905 1582.55 231.789C1583.82 231.659 1585.19 232.193 1586.66 233.392L1598.77 243.233C1600.24 244.432 1601.29 245.674 1601.92 246.96C1602.63 248.308 1603.02 249.975 1603.08 251.958L1604.64 296.15L1624.8 271.364C1626 269.89 1627.16 269.095 1628.29 268.979C1629.56 268.849 1630.93 269.383 1632.4 270.582L1649.86 284.776C1651.33 285.975 1652.1 287.176 1652.15 288.379C1652.34 289.567 1651.84 290.898 1650.64 292.372L1589.3 367.776C1588.11 369.25 1586.87 370.052 1585.61 370.182C1584.48 370.298 1583.18 369.757 1581.71 368.558L1564.25 354.364C1562.78 353.165 1561.94 351.971 1561.75 350.783C1561.7 349.58 1562.27 348.242 1563.47 346.768L1575.11 332.455L1574.8 292.186L1543.57 330.586C1542.37 332.06 1541.13 332.862 1539.87 332.992C1538.74 333.108 1537.44 332.567 1535.97 331.368Z" fill="black"/>
<path d="M1641.58 428.635L1606.84 391.91C1605.53 390.529 1604.86 389.237 1604.83 388.034C1604.93 386.834 1605.67 385.582 1607.05 384.277L1677.68 317.5C1679.06 316.195 1680.32 315.558 1681.45 315.589C1682.72 315.625 1684.01 316.333 1685.32 317.713L1720.05 354.438C1728.64 363.52 1733.18 371.957 1733.67 379.751C1734.23 387.618 1730.73 395.124 1723.17 402.269L1689.17 434.421C1681.61 441.566 1673.92 444.64 1666.09 443.643C1658.34 442.719 1650.17 437.716 1641.58 428.635ZM1684.19 358.21L1647.13 393.248L1659.39 406.216C1661.04 407.959 1662.68 408.819 1664.31 408.793C1666.01 408.841 1667.76 408.006 1669.58 406.288L1696.07 381.247C1697.88 379.529 1698.78 377.857 1698.75 376.229C1698.87 374.606 1698.1 372.922 1696.45 371.179L1684.19 358.21Z" fill="black"/>
<path d="M1757.56 529.793C1753.84 532.495 1750.03 534.396 1746.13 535.496C1742.37 536.617 1738.37 536.555 1734.13 535.309C1730.03 534.086 1725.58 531.447 1720.78 527.392C1716.04 523.419 1710.94 517.669 1705.47 510.144C1700.01 502.619 1696.09 495.948 1693.72 490.132C1691.35 484.315 1690.19 479.226 1690.24 474.867C1690.42 470.53 1691.6 466.708 1693.77 463.402C1696.08 460.117 1699.1 457.124 1702.82 454.422L1744.22 424.373C1747.94 421.671 1751.68 419.759 1755.44 418.637C1759.34 417.537 1763.38 417.57 1767.56 418.735C1771.8 419.981 1776.32 422.631 1781.12 426.686C1785.92 430.74 1791.05 436.53 1796.51 444.055C1801.98 451.58 1805.87 458.21 1808.18 463.946C1810.55 469.763 1811.64 474.84 1811.45 479.177C1811.33 483.596 1810.11 487.447 1807.8 490.731C1805.62 494.037 1802.68 497.042 1798.95 499.744L1757.56 529.793ZM1727.2 478.801C1725.58 479.976 1724.65 481.581 1724.4 483.617C1724.23 485.595 1725.73 488.768 1728.9 493.137C1732.07 497.507 1734.63 499.916 1736.56 500.366C1738.58 500.758 1740.39 500.366 1742.01 499.191L1774.66 475.487C1776.2 474.371 1777.06 472.824 1777.23 470.846C1777.48 468.81 1776.02 465.607 1772.84 461.238C1769.67 456.869 1767.08 454.488 1765.06 454.097C1763.13 453.647 1761.39 453.98 1759.86 455.096L1727.2 478.801Z" fill="black"/>
<path d="M1833.85 556.364L1816.98 565.543L1822.36 575.423C1823.61 577.707 1825.01 578.933 1826.59 579.102C1828.25 579.223 1829.95 578.805 1831.71 577.849L1836.19 575.411C1837.95 574.454 1839.18 573.27 1839.89 571.858C1840.69 570.399 1840.47 568.527 1839.23 566.244L1833.85 556.364ZM1760.12 590.347L1749.07 570.06C1748.16 568.392 1747.85 566.971 1748.12 565.798C1748.53 564.665 1749.56 563.644 1751.23 562.736L1836.6 516.265C1838.27 515.357 1839.65 515.063 1840.74 515.383C1841.96 515.743 1843.02 516.757 1843.93 518.426L1867.82 562.293C1873.18 572.129 1874.79 580.015 1872.67 585.951C1870.69 591.926 1866.45 596.683 1859.95 600.221L1853.89 603.52C1850.2 605.528 1846.73 606.678 1843.47 606.971C1840.35 607.303 1837.48 606.419 1834.85 604.318C1836.91 609.347 1837.06 614.219 1835.3 618.934C1833.59 623.737 1829.96 627.644 1824.43 630.656L1796.5 645.86C1794.83 646.768 1793.39 647.042 1792.17 646.682C1791.08 646.362 1790.08 645.368 1789.17 643.699L1778.05 623.281C1777.15 621.612 1776.83 620.191 1777.1 619.018C1777.51 617.885 1778.55 616.865 1780.22 615.956L1800.37 604.984C1802.3 603.932 1803.49 602.772 1803.94 601.504C1804.53 600.275 1804.32 598.739 1803.31 596.895L1793.27 578.452L1767.45 592.508C1765.78 593.416 1764.33 593.69 1763.11 593.33C1762.03 593.01 1761.03 592.016 1760.12 590.347Z" fill="black"/>
<path d="M1827.32 736.8L1801.77 672.059C1801.07 670.292 1800.93 668.843 1801.34 667.712C1801.89 666.638 1803.04 665.752 1804.81 665.055L1895.23 629.387C1897 628.69 1898.4 628.567 1899.44 629.018C1900.6 629.524 1901.54 630.662 1902.23 632.429L1927.78 697.17C1928.48 698.937 1928.56 700.358 1928.01 701.433C1927.6 702.563 1926.51 703.477 1924.74 704.175L1908.42 710.615C1906.65 711.312 1905.18 711.407 1904.01 710.9C1902.98 710.449 1902.11 709.34 1901.41 707.573L1886.21 669.063L1875.47 673.301L1886.21 700.509C1886.9 702.277 1886.98 703.698 1886.44 704.772C1886.02 705.903 1884.93 706.817 1883.16 707.514L1868.23 713.404C1866.47 714.101 1865 714.196 1863.83 713.689C1862.79 713.238 1861.93 712.129 1861.23 710.362L1850.49 683.154L1838.49 687.888L1853.69 726.397C1854.39 728.165 1854.46 729.586 1853.92 730.66C1853.51 731.791 1852.42 732.705 1850.65 733.402L1834.32 739.842C1832.55 740.539 1831.09 740.634 1829.92 740.127C1828.88 739.677 1828.01 738.568 1827.32 736.8Z" fill="black"/>
<path d="M1825.71 783.27L1822.48 772.18C1821.95 770.355 1821.99 768.885 1822.6 767.77C1823.15 766.779 1824.33 766.017 1826.16 765.487L1831.92 763.812C1833.74 763.281 1835.15 763.288 1836.14 763.833C1837.26 764.446 1838.08 765.665 1838.61 767.489L1841.5 777.427C1841.87 778.676 1842.48 779.538 1843.35 780.015C1844.31 780.464 1845.42 780.506 1846.67 780.143L1848.83 779.515L1844.26 763.816C1843.73 761.992 1843.72 760.536 1844.24 759.448C1844.88 758.429 1846.11 757.654 1847.94 757.123L1869.25 750.925C1871.08 750.394 1872.49 750.402 1873.48 750.946C1874.59 751.559 1875.42 752.778 1875.95 754.602L1884.41 783.696C1884.94 785.521 1884.89 786.943 1884.25 787.962C1883.73 789.05 1882.56 789.859 1880.73 790.389L1853.66 798.263C1846.36 800.385 1840.36 799.994 1835.66 797.09C1830.9 794.31 1827.58 789.703 1825.71 783.27ZM1895.93 780.346L1887.47 751.252C1886.94 749.428 1886.93 747.972 1887.45 746.884C1888.09 745.865 1889.32 745.09 1891.15 744.559L1920.39 736.057C1922.21 735.527 1923.62 735.534 1924.61 736.079C1925.73 736.692 1926.55 737.91 1927.08 739.735L1935.54 768.829C1936.07 770.653 1936.02 772.075 1935.38 773.095C1934.86 774.182 1933.69 774.991 1931.87 775.522L1902.63 784.023C1900.8 784.554 1899.33 784.513 1898.22 783.9C1897.23 783.355 1896.47 782.17 1895.93 780.346Z" fill="black"/>
<path d="M1831.21 1256.05L1838.53 1232.87C1839.1 1231.06 1839.9 1229.85 1840.94 1229.23C1842.03 1228.74 1843.49 1228.78 1845.3 1229.35L1915.53 1251.52L1922.17 1230.5C1922.75 1228.68 1923.55 1227.47 1924.58 1226.85C1925.68 1226.36 1927.14 1226.4 1928.95 1226.97L1946.26 1232.44C1948.07 1233.01 1949.24 1233.8 1949.76 1234.8C1950.34 1235.93 1950.35 1237.4 1949.78 1239.21L1925.94 1314.74C1925.36 1316.55 1924.53 1317.7 1923.43 1318.19C1922.4 1318.81 1920.97 1318.83 1919.16 1318.26L1901.85 1312.8C1900.04 1312.22 1898.84 1311.37 1898.25 1310.24C1897.73 1309.24 1897.76 1307.83 1898.33 1306.02L1904.97 1284.99L1834.73 1262.82C1832.92 1262.25 1831.72 1261.4 1831.14 1260.27C1830.61 1259.27 1830.64 1257.86 1831.21 1256.05Z" fill="black"/>
<path d="M1874.47 1368.73L1857.01 1360.75L1852.33 1370.99C1851.25 1373.35 1851.12 1375.21 1851.92 1376.57C1852.82 1377.97 1854.18 1379.09 1856 1379.92L1860.64 1382.04C1862.46 1382.87 1864.15 1383.15 1865.7 1382.87C1867.35 1382.63 1868.72 1381.33 1869.8 1378.96L1874.47 1368.73ZM1803.04 1330.16L1812.64 1309.15C1813.43 1307.43 1814.38 1306.32 1815.48 1305.83C1816.63 1305.48 1818.07 1305.7 1819.8 1306.49L1908.21 1346.87C1909.94 1347.66 1911 1348.59 1911.39 1349.65C1911.84 1350.84 1911.67 1352.3 1910.88 1354.03L1890.12 1399.46C1885.46 1409.65 1880.12 1415.67 1874.1 1417.54C1868.13 1419.54 1861.78 1419 1855.05 1415.93L1848.77 1413.06C1844.95 1411.32 1841.95 1409.23 1839.76 1406.8C1837.62 1404.5 1836.6 1401.68 1836.71 1398.32C1833.92 1402.98 1830.11 1406.02 1825.28 1407.44C1820.41 1408.96 1815.11 1408.4 1809.38 1405.79L1780.46 1392.57C1778.73 1391.78 1777.64 1390.79 1777.2 1389.6C1776.8 1388.54 1777 1387.15 1777.79 1385.42L1787.45 1364.27C1788.24 1362.54 1789.19 1361.44 1790.29 1360.95C1791.44 1360.6 1792.88 1360.81 1794.61 1361.6L1815.48 1371.14C1817.49 1372.05 1819.13 1372.31 1820.41 1371.91C1821.74 1371.64 1822.85 1370.55 1823.72 1368.64L1832.45 1349.54L1805.71 1337.32C1803.98 1336.53 1802.89 1335.54 1802.45 1334.35C1802.05 1333.29 1802.25 1331.89 1803.04 1330.16Z" fill="black"/>
<path d="M1809.96 1481.63L1794.34 1463.59L1781.88 1483.57L1804.96 1489.65C1805.94 1489.79 1806.73 1489.75 1807.33 1489.54C1807.88 1489.41 1808.32 1489.09 1808.63 1488.58L1810.62 1485.4C1810.94 1484.89 1811.06 1484.32 1810.98 1483.68C1810.86 1483.13 1810.52 1482.45 1809.96 1481.63ZM1754.15 1436.77C1752.54 1435.76 1751.59 1434.64 1751.3 1433.4C1751.04 1432.3 1751.42 1430.94 1752.42 1429.33L1764.09 1410.62C1765.09 1409.01 1766.17 1408.03 1767.33 1407.69C1768.52 1407.49 1769.92 1407.89 1771.53 1408.9L1805.14 1429.84C1807.68 1431.43 1810.37 1433.64 1813.21 1436.46C1815.99 1439.37 1819.05 1443.05 1822.41 1447.5L1844.4 1476.59C1845.52 1477.99 1846.11 1479.42 1846.15 1480.86C1846.14 1482.39 1845.61 1484 1844.55 1485.69L1823.2 1519.93C1822.2 1521.55 1821.04 1522.65 1819.72 1523.24C1818.36 1523.92 1816.79 1524.07 1815.03 1523.68L1779.23 1516.74C1773.76 1515.69 1769.13 1514.51 1765.35 1513.21C1761.51 1512 1758.32 1510.6 1755.77 1509.01L1722.16 1488.06C1720.55 1487.06 1719.6 1485.94 1719.31 1484.7C1719.06 1483.6 1719.43 1482.24 1720.44 1480.63L1732.42 1461.41C1733.48 1459.71 1734.61 1458.65 1735.82 1458.22C1737.06 1457.94 1738.49 1458.29 1740.1 1459.3L1757.92 1470.41L1771.97 1447.88L1754.15 1436.77Z" fill="black"/>
<path d="M1686.49 1525.08L1701.03 1506.94C1702.22 1505.46 1703.41 1504.62 1704.6 1504.42C1705.8 1504.36 1707.14 1504.92 1708.62 1506.11L1784.47 1566.9C1785.95 1568.09 1786.75 1569.25 1786.87 1570.37C1787.01 1571.64 1786.49 1573.01 1785.3 1574.49L1743.45 1626.68C1742.26 1628.17 1741.06 1628.94 1739.86 1629C1738.67 1629.2 1737.34 1628.71 1735.86 1627.52L1721.93 1616.35C1720.45 1615.17 1719.64 1613.94 1719.5 1612.67C1719.37 1611.55 1719.9 1610.25 1721.09 1608.76L1745.02 1578.92L1732.85 1569.17L1716.52 1589.53C1715.33 1591.01 1714.14 1591.78 1712.94 1591.84C1711.75 1592.05 1710.41 1591.55 1708.93 1590.36L1694.89 1579.11C1693.4 1577.92 1692.59 1576.69 1692.45 1575.43C1692.33 1574.3 1692.86 1573 1694.05 1571.52L1710.38 1551.15L1687.32 1532.67C1685.84 1531.48 1685.03 1530.26 1684.89 1528.99C1684.76 1527.87 1685.3 1526.56 1686.49 1525.08Z" fill="black"/>
<path d="M1623.05 1597.14L1639.48 1580.69C1640.82 1579.35 1642.09 1578.64 1643.29 1578.57C1644.5 1578.64 1645.77 1579.34 1647.11 1580.69L1715.9 1649.36C1717.25 1650.7 1717.92 1651.94 1717.92 1653.07C1717.92 1654.34 1717.25 1655.65 1715.91 1657L1668.63 1704.33C1667.29 1705.67 1666.01 1706.31 1664.81 1706.24C1663.61 1706.31 1662.34 1705.68 1660.99 1704.34L1648.36 1691.72C1647.02 1690.38 1646.34 1689.07 1646.34 1687.8C1646.34 1686.67 1647.01 1685.43 1648.35 1684.09L1675.38 1657.03L1664.35 1646L1645.9 1664.47C1644.56 1665.81 1643.29 1666.45 1642.08 1666.38C1640.88 1666.45 1639.61 1665.82 1638.26 1664.48L1625.52 1651.76C1624.18 1650.42 1623.51 1649.11 1623.51 1647.84C1623.51 1646.7 1624.18 1645.47 1625.52 1644.12L1643.96 1625.66L1623.05 1604.78C1621.71 1603.43 1621.03 1602.13 1621.03 1600.85C1621.03 1599.72 1621.7 1598.49 1623.05 1597.14Z" fill="black"/>
<path d="M1572.1 1645.79C1573.58 1644.6 1574.92 1644.03 1576.13 1644.09C1577.31 1644.29 1578.5 1645.13 1579.7 1646.61L1590.9 1660.51C1592.09 1661.99 1592.63 1663.29 1592.51 1664.41C1592.37 1665.68 1591.56 1666.91 1590.08 1668.1L1578.52 1677.42L1610.15 1716.66L1621.71 1707.34C1623.19 1706.15 1624.53 1705.58 1625.74 1705.64C1626.92 1705.84 1628.11 1706.68 1629.31 1708.15L1640.7 1722.29C1641.89 1723.76 1642.43 1725.07 1642.3 1726.19C1642.17 1727.46 1641.36 1728.69 1639.88 1729.88L1590.12 1769.97C1588.64 1771.16 1587.31 1771.66 1586.12 1771.46C1584.92 1771.4 1583.72 1770.63 1582.53 1769.15L1571.14 1755.02C1569.95 1753.54 1569.42 1752.17 1569.55 1750.91C1569.68 1749.78 1570.48 1748.62 1571.95 1747.43L1583.28 1738.3L1551.65 1699.06L1540.32 1708.19C1538.85 1709.38 1537.51 1709.88 1536.32 1709.68C1535.12 1709.62 1533.92 1708.85 1532.73 1707.38L1521.53 1693.48C1520.34 1692 1519.81 1690.63 1519.94 1689.36C1520.07 1688.24 1520.87 1687.08 1522.34 1685.89L1572.1 1645.79Z" fill="black"/>
<path d="M1439.92 1740.75L1470.74 1721.02C1481.27 1714.28 1490.45 1711.37 1498.29 1712.29C1506.03 1713.27 1512.71 1718.14 1518.32 1726.89L1543.48 1766.18C1549.09 1774.94 1550.71 1783.04 1548.35 1790.49C1545.97 1798.07 1539.51 1805.23 1528.98 1811.97L1498.15 1831.7C1496.55 1832.72 1495.17 1833.07 1494.01 1832.75C1492.83 1832.56 1491.72 1831.66 1490.69 1830.06L1480.91 1814.78C1479.88 1813.18 1479.51 1811.76 1479.78 1810.51C1480.02 1809.41 1480.94 1808.34 1482.54 1807.32L1507.94 1791.07C1510.55 1789.4 1512.13 1787.61 1512.7 1785.7C1513.31 1783.89 1512.95 1781.92 1511.6 1779.82L1492.35 1749.75C1491 1747.65 1489.37 1746.49 1487.46 1746.29C1485.6 1746.17 1483.37 1746.95 1480.76 1748.62L1455.36 1764.88C1453.76 1765.9 1452.38 1766.25 1451.23 1765.92C1450.04 1765.73 1448.93 1764.84 1447.9 1763.24L1438.28 1748.21C1437.25 1746.61 1436.88 1745.18 1437.15 1743.94C1437.39 1742.84 1438.32 1741.77 1439.92 1740.75Z" fill="black"/>
<path d="M1317.43 1800.34L1350.93 1785.59C1362.36 1780.55 1371.88 1779.08 1379.48 1781.2C1386.99 1783.36 1392.84 1789.19 1397.03 1798.71L1415.85 1841.4C1420.04 1850.92 1420.4 1859.17 1416.93 1866.17C1413.4 1873.29 1405.92 1879.38 1394.48 1884.41L1360.98 1899.17C1359.24 1899.93 1357.83 1900.07 1356.73 1899.57C1355.59 1899.2 1354.63 1898.14 1353.86 1896.4L1346.54 1879.8C1345.78 1878.06 1345.63 1876.59 1346.09 1875.41C1346.5 1874.35 1347.57 1873.44 1349.31 1872.68L1376.9 1860.52C1379.74 1859.27 1381.58 1857.75 1382.43 1855.96C1383.32 1854.25 1383.26 1852.26 1382.25 1849.97L1367.85 1817.3C1366.84 1815.01 1365.41 1813.62 1363.56 1813.13C1361.74 1812.73 1359.41 1813.15 1356.58 1814.4L1328.98 1826.56C1327.25 1827.32 1325.83 1827.45 1324.73 1826.95C1323.59 1826.58 1322.63 1825.53 1321.86 1823.79L1314.67 1807.46C1313.9 1805.72 1313.75 1804.26 1314.21 1803.07C1314.62 1802.02 1315.69 1801.11 1317.43 1800.34Z" fill="black"/>
<path d="M1213.88 1863.71C1212.54 1859.31 1211.99 1855.09 1212.23 1851.05C1212.39 1847.13 1213.76 1843.37 1216.32 1839.77C1218.82 1836.29 1222.77 1832.95 1228.17 1829.74C1233.48 1826.56 1240.58 1823.62 1249.48 1820.92C1258.37 1818.22 1265.96 1816.7 1272.23 1816.36C1278.5 1816.02 1283.69 1816.59 1287.8 1818.06C1291.84 1819.65 1295.06 1822.02 1297.48 1825.15C1299.83 1828.41 1301.67 1832.24 1303.01 1836.64L1317.88 1885.58C1319.22 1889.98 1319.81 1894.14 1319.64 1898.06C1319.4 1902.1 1318.05 1905.91 1315.58 1909.48C1313.02 1913.08 1309.04 1916.48 1303.64 1919.69C1298.24 1922.9 1291.09 1925.85 1282.19 1928.56C1273.29 1931.26 1265.75 1932.77 1259.58 1933.08C1253.3 1933.41 1248.15 1932.79 1244.11 1931.19C1239.98 1929.63 1236.73 1927.21 1234.39 1923.96C1231.97 1920.82 1230.09 1917.06 1228.76 1912.65L1213.88 1863.71ZM1272 1851.7C1271.42 1849.79 1270.21 1848.38 1268.36 1847.48C1266.55 1846.67 1263.06 1847.05 1257.89 1848.62C1252.73 1850.19 1249.61 1851.81 1248.56 1853.49C1247.53 1855.27 1247.31 1857.11 1247.89 1859.03L1259.62 1897.63C1260.17 1899.45 1261.36 1900.76 1263.17 1901.57C1265.01 1902.47 1268.52 1902.14 1273.68 1900.57C1278.85 1899 1281.95 1897.33 1282.98 1895.55C1284.03 1893.87 1284.29 1892.13 1283.73 1890.31L1272 1851.7Z" fill="black"/>
<path d="M1156.4 1846.24L1178.6 1842.55C1180.47 1842.23 1181.92 1842.4 1182.94 1843.04C1183.87 1843.8 1184.5 1845.11 1184.81 1846.99L1200.78 1942.86C1201.09 1944.74 1200.92 1946.14 1200.26 1947.06C1199.52 1948.09 1198.21 1948.77 1196.34 1949.08L1180.95 1951.64C1179.08 1951.95 1177.45 1951.92 1176.07 1951.54C1174.59 1951.18 1173.09 1950.36 1171.56 1949.1L1137.38 1921.03L1142.63 1952.55C1142.94 1954.42 1142.77 1955.82 1142.11 1956.74C1141.37 1957.77 1140.07 1958.45 1138.19 1958.76L1116 1962.45C1114.12 1962.77 1112.72 1962.54 1111.78 1961.79C1110.76 1961.15 1110.09 1959.89 1109.78 1958.01L1093.81 1862.13C1093.5 1860.26 1093.72 1858.81 1094.46 1857.77C1095.11 1856.85 1096.38 1856.23 1098.25 1855.92L1120.45 1852.23C1122.32 1851.91 1123.77 1852.08 1124.79 1852.72C1125.73 1853.48 1126.35 1854.79 1126.66 1856.67L1129.69 1874.87L1160.1 1901.28L1151.96 1852.45C1151.65 1850.58 1151.87 1849.12 1152.61 1848.09C1153.26 1847.17 1154.53 1846.55 1156.4 1846.24Z" fill="black"/>
<path d="M1018.41 1860.94L1042.69 1859.93C1044.58 1859.85 1046 1860.19 1046.93 1860.96C1047.77 1861.82 1048.23 1863.2 1048.31 1865.1L1051.37 1938.69L1073.41 1937.77C1075.3 1937.69 1076.72 1938.03 1077.65 1938.79C1078.49 1939.66 1078.95 1941.04 1079.03 1942.94L1079.78 1961.08C1079.86 1962.97 1079.52 1964.34 1078.75 1965.17C1077.89 1966.11 1076.51 1966.62 1074.61 1966.7L995.48 1969.99C993.582 1970.07 992.214 1969.68 991.378 1968.81C990.445 1968.05 989.939 1966.72 989.86 1964.82L989.104 1946.69C989.025 1944.79 989.416 1943.37 990.278 1942.44C991.044 1941.6 992.376 1941.15 994.274 1941.07L1016.3 1940.15L1013.24 1866.56C1013.16 1864.67 1013.55 1863.25 1014.41 1862.31C1015.18 1861.48 1016.51 1861.02 1018.41 1860.94Z" fill="black"/>
<path d="M927.171 1940L928.727 1920.87L917.514 1919.96C914.922 1919.75 913.125 1920.25 912.123 1921.47C911.112 1922.8 910.526 1924.45 910.364 1926.45L909.951 1931.53C909.789 1933.52 910.104 1935.21 910.895 1936.57C911.679 1938.04 913.366 1938.88 915.958 1939.09L927.171 1940ZM939.117 1859.71L962.141 1861.58C964.035 1861.73 965.398 1862.25 966.23 1863.12C966.955 1864.08 967.24 1865.51 967.086 1867.4L959.209 1964.28C959.055 1966.17 958.547 1967.49 957.685 1968.22C956.715 1969.04 955.283 1969.38 953.389 1969.22L903.603 1965.18C892.44 1964.27 884.956 1961.3 881.15 1956.28C877.237 1951.35 875.581 1945.19 876.18 1937.82L876.74 1930.94C877.08 1926.75 878.02 1923.22 879.558 1920.33C880.989 1917.54 883.303 1915.62 886.498 1914.58C881.164 1913.54 877.007 1911 874.025 1906.94C870.945 1902.88 869.659 1897.71 870.17 1891.43L872.747 1859.73C872.901 1857.84 873.463 1856.48 874.433 1855.65C875.295 1854.92 876.673 1854.63 878.567 1854.79L901.74 1856.67C903.634 1856.82 904.997 1857.34 905.829 1858.21C906.554 1859.17 906.839 1860.6 906.685 1862.49L904.825 1885.36C904.647 1887.56 904.966 1889.19 905.782 1890.26C906.49 1891.42 907.891 1892.08 909.984 1892.25L930.915 1893.96L933.297 1864.65C933.451 1862.76 934.013 1861.4 934.983 1860.58C935.845 1859.84 937.223 1859.55 939.117 1859.71Z" fill="black"/>
<path d="M757.867 1859.78C758.828 1855.28 760.391 1851.32 762.554 1847.9C764.599 1844.55 767.615 1841.92 771.602 1840.01C775.47 1838.18 780.544 1837.17 786.823 1836.98C793.004 1836.76 800.642 1837.63 809.737 1839.57C818.831 1841.52 826.205 1843.86 831.856 1846.6C837.508 1849.34 841.774 1852.35 844.653 1855.62C847.413 1858.97 849.092 1862.61 849.687 1866.52C850.164 1870.5 849.922 1874.75 848.96 1879.24L838.267 1929.26C837.306 1933.76 835.803 1937.69 833.758 1941.03C831.594 1944.46 828.568 1947.13 824.679 1949.06C820.691 1950.97 815.558 1952.02 809.28 1952.21C803.001 1952.41 795.314 1951.53 786.219 1949.59C777.124 1947.64 769.8 1945.31 764.246 1942.59C758.594 1939.85 754.388 1936.8 751.628 1933.45C748.769 1930.08 747.102 1926.4 746.625 1922.41C746.029 1918.5 746.212 1914.3 747.174 1909.8L757.867 1859.78ZM814.533 1877.41C814.951 1875.45 814.573 1873.64 813.399 1871.95C812.204 1870.37 808.966 1869.01 803.685 1867.88C798.404 1866.75 794.894 1866.67 793.156 1867.63C791.396 1868.68 790.307 1870.19 789.889 1872.14L781.454 1911.6C781.057 1913.46 781.456 1915.18 782.651 1916.77C783.825 1918.45 787.053 1919.86 792.334 1920.98C797.615 1922.11 801.135 1922.15 802.894 1921.09C804.633 1920.13 805.701 1918.73 806.098 1916.87L814.533 1877.41Z" fill="black"/>
<path d="M665.151 1798.81L737.231 1823.99C739.025 1824.62 740.214 1825.45 740.8 1826.51C741.258 1827.62 741.174 1829.07 740.547 1830.87L708.483 1922.63C707.856 1924.42 707.033 1925.56 706.014 1926.05C704.868 1926.61 703.398 1926.57 701.604 1925.94L679.654 1918.28C677.861 1917.65 676.735 1916.78 676.276 1915.67C675.69 1914.61 675.711 1913.19 676.338 1911.4L700.831 1841.3L681.431 1834.53L673.415 1857.47C672.788 1859.26 671.965 1860.4 670.946 1860.9C669.799 1861.45 668.329 1861.41 666.535 1860.78L646.002 1853.61C644.208 1852.99 643.082 1852.12 642.624 1851C642.038 1849.95 642.058 1848.53 642.685 1846.73L658.272 1802.13C658.899 1800.34 659.786 1799.16 660.932 1798.61C661.951 1798.12 663.358 1798.19 665.151 1798.81Z" fill="black"/>
<path d="M631.917 1767.27L642.406 1772.11C644.131 1772.9 645.214 1773.9 645.654 1775.09C646.045 1776.15 645.843 1777.54 645.047 1779.27L642.533 1784.72C641.737 1786.44 640.808 1787.5 639.747 1787.89C638.552 1788.33 637.092 1788.16 635.367 1787.36L625.969 1783.02C624.788 1782.48 623.733 1782.38 622.804 1782.72C621.834 1783.15 621.076 1783.96 620.531 1785.14L619.589 1787.19L634.435 1794.03C636.161 1794.83 637.265 1795.78 637.747 1796.88C638.096 1798.03 637.873 1799.47 637.077 1801.2L627.776 1821.36C626.98 1823.08 626.051 1824.14 624.989 1824.53C623.795 1824.97 622.335 1824.79 620.61 1824L593.095 1811.31C591.37 1810.51 590.332 1809.54 589.983 1808.38C589.501 1807.28 589.658 1805.87 590.454 1804.14L602.269 1778.54C605.453 1771.64 609.682 1767.36 614.955 1765.72C620.179 1763.95 625.833 1764.46 631.917 1767.27ZM588.068 1822.2L615.582 1834.89C617.308 1835.69 618.411 1836.64 618.893 1837.74C619.243 1838.89 619.019 1840.33 618.223 1842.06L605.466 1869.71C604.67 1871.43 603.741 1872.49 602.679 1872.88C601.485 1873.32 600.025 1873.14 598.3 1872.35L570.785 1859.66C569.06 1858.86 568.023 1857.89 567.673 1856.74C567.191 1855.63 567.348 1854.22 568.144 1852.49L580.902 1824.84C581.698 1823.12 582.693 1822.04 583.887 1821.6C584.949 1821.2 586.342 1821.41 588.068 1822.2Z" fill="black"/>
<path d="M549.157 1741.86C550.763 1742.88 551.732 1743.96 552.065 1745.12C552.26 1746.31 551.85 1747.7 550.834 1749.31L541.293 1764.4C540.277 1766 539.217 1766.93 538.113 1767.18C536.871 1767.46 535.448 1767.09 533.842 1766.07L521.29 1758.14L494.348 1800.73L506.9 1808.67C508.506 1809.68 509.475 1810.77 509.808 1811.93C510.004 1813.12 509.593 1814.51 508.578 1816.12L498.875 1831.46C497.86 1833.06 496.8 1833.99 495.696 1834.24C494.454 1834.52 493.03 1834.15 491.425 1833.13L437.414 1798.99C435.808 1797.97 434.908 1796.87 434.713 1795.68C434.38 1794.52 434.721 1793.14 435.736 1791.54L445.439 1776.2C446.454 1774.59 447.583 1773.65 448.825 1773.37C449.929 1773.12 451.284 1773.5 452.89 1774.52L465.188 1782.3L492.129 1739.7L479.831 1731.93C478.225 1730.91 477.325 1729.81 477.13 1728.62C476.797 1727.46 477.138 1726.08 478.154 1724.48L487.695 1709.39C488.711 1707.78 489.84 1706.84 491.082 1706.56C492.185 1706.31 493.54 1706.7 495.146 1707.71L549.157 1741.86Z" fill="black"/>
<path d="M451.031 1675.02L468.489 1689.21C469.963 1690.41 470.797 1691.61 470.99 1692.8C471.043 1694 470.47 1695.34 469.271 1696.81L407.935 1772.21C406.736 1773.69 405.574 1774.48 404.448 1774.6C403.182 1774.73 401.812 1774.2 400.338 1773L388.234 1763.16C386.76 1761.96 385.708 1760.71 385.077 1759.43C384.37 1758.08 383.985 1756.41 383.923 1754.43L382.358 1710.24L362.196 1735.02C360.997 1736.5 359.835 1737.29 358.71 1737.41C357.443 1737.54 356.073 1737.01 354.599 1735.81L337.142 1721.61C335.667 1720.41 334.904 1719.21 334.851 1718.01C334.658 1716.82 335.16 1715.49 336.359 1714.02L397.695 1638.61C398.894 1637.14 400.127 1636.34 401.393 1636.21C402.519 1636.09 403.819 1636.63 405.293 1637.83L422.75 1652.03C424.225 1653.22 425.058 1654.42 425.252 1655.61C425.305 1656.81 424.732 1658.15 423.533 1659.62L411.89 1673.93L412.198 1714.2L443.434 1675.8C444.633 1674.33 445.866 1673.53 447.132 1673.4C448.257 1673.28 449.557 1673.82 451.031 1675.02Z" fill="black"/>
<path d="M345.424 1577.75L380.16 1614.48C381.466 1615.86 382.137 1617.15 382.174 1618.35C382.07 1619.55 381.327 1620.81 379.947 1622.11L309.316 1688.89C307.935 1690.19 306.68 1690.83 305.549 1690.8C304.276 1690.76 302.987 1690.06 301.682 1688.68L266.946 1651.95C258.356 1642.87 253.817 1634.43 253.327 1626.64C252.769 1618.77 256.268 1611.26 263.825 1604.12L297.833 1571.97C305.39 1564.82 313.081 1561.75 320.906 1562.75C328.662 1563.67 336.835 1568.67 345.424 1577.75ZM302.813 1648.18L339.872 1613.14L327.607 1600.17C325.958 1598.43 324.319 1597.57 322.691 1597.6C320.995 1597.55 319.238 1598.38 317.421 1600.1L290.935 1625.14C289.118 1626.86 288.223 1628.53 288.248 1630.16C288.132 1631.78 288.898 1633.47 290.547 1635.21L302.813 1648.18Z" fill="black"/>
<path d="M229.439 1476.6C233.161 1473.89 236.972 1471.99 240.869 1470.89C244.628 1469.77 248.627 1469.83 252.869 1471.08C256.971 1472.3 261.421 1474.94 266.22 1479C270.959 1482.97 276.061 1488.72 281.526 1496.24C286.991 1503.77 290.909 1510.44 293.28 1516.26C295.65 1522.07 296.812 1527.16 296.765 1531.52C296.577 1535.86 295.398 1539.68 293.227 1542.99C290.915 1546.27 287.898 1549.26 284.176 1551.97L242.783 1582.02C239.06 1584.72 235.32 1586.63 231.562 1587.75C227.664 1588.85 223.623 1588.82 219.441 1587.65C215.199 1586.41 210.679 1583.76 205.88 1579.7C201.082 1575.65 195.95 1569.86 190.486 1562.33C185.021 1554.81 181.132 1548.18 178.82 1542.44C176.45 1536.63 175.358 1531.55 175.545 1527.21C175.673 1522.79 176.893 1518.94 179.204 1515.66C181.376 1512.35 184.323 1509.35 188.046 1506.64L229.439 1476.6ZM259.797 1527.59C261.416 1526.41 262.351 1524.81 262.602 1522.77C262.773 1520.79 261.272 1517.62 258.099 1513.25C254.925 1508.88 252.372 1506.47 250.439 1506.02C248.424 1505.63 246.608 1506.02 244.989 1507.2L212.336 1530.9C210.798 1532.02 209.944 1533.56 209.774 1535.54C209.522 1537.58 210.983 1540.78 214.156 1545.15C217.329 1549.52 219.923 1551.9 221.937 1552.29C223.871 1552.74 225.606 1552.41 227.144 1551.29L259.797 1527.59Z" fill="black"/>
<path d="M153.154 1450.02L170.018 1440.85L164.637 1430.97C163.394 1428.68 161.986 1427.46 160.414 1427.29C158.754 1427.17 157.045 1427.58 155.289 1428.54L150.809 1430.98C149.053 1431.93 147.819 1433.12 147.107 1434.53C146.308 1435.99 146.53 1437.86 147.774 1440.14L153.154 1450.02ZM226.88 1416.04L237.927 1436.33C238.836 1438 239.154 1439.42 238.882 1440.59C238.474 1441.72 237.436 1442.74 235.767 1443.65L150.395 1490.12C148.727 1491.03 147.35 1491.33 146.264 1491.01C145.043 1490.65 143.979 1489.63 143.07 1487.96L119.181 1444.1C113.825 1434.26 112.206 1426.37 114.326 1420.44C116.31 1414.46 120.551 1409.71 127.051 1406.17L133.111 1402.87C136.8 1400.86 140.273 1399.71 143.529 1399.42C146.65 1399.09 149.523 1399.97 152.147 1402.07C150.092 1397.04 149.944 1392.17 151.703 1387.45C153.415 1382.65 157.037 1378.74 162.57 1375.73L190.5 1360.53C192.169 1359.62 193.614 1359.35 194.835 1359.71C195.92 1360.03 196.917 1361.02 197.826 1362.69L208.945 1383.11C209.854 1384.78 210.172 1386.2 209.9 1387.37C209.492 1388.5 208.454 1389.52 206.785 1390.43L186.628 1401.4C184.695 1402.46 183.505 1403.62 183.057 1404.89C182.474 1406.11 182.684 1407.65 183.689 1409.49L193.732 1427.94L219.554 1413.88C221.223 1412.97 222.668 1412.7 223.889 1413.06C224.974 1413.38 225.971 1414.37 226.88 1416.04Z" fill="black"/>
<path d="M159.683 1269.59L185.232 1334.33C185.929 1336.1 186.071 1337.55 185.657 1338.68C185.114 1339.75 183.958 1340.64 182.191 1341.33L91.7713 1377C90.0039 1377.7 88.6012 1377.82 87.5634 1377.37C86.3958 1376.86 85.4632 1375.73 84.7658 1373.96L59.217 1309.22C58.5196 1307.45 58.4426 1306.03 58.9862 1304.96C59.4 1303.83 60.4906 1302.91 62.2581 1302.21L78.5838 1295.77C80.3513 1295.08 81.8188 1294.98 82.9864 1295.49C84.0243 1295.94 84.8919 1297.05 85.5894 1298.82L100.786 1337.33L111.531 1333.09L100.794 1305.88C100.096 1304.11 100.019 1302.69 100.563 1301.62C100.977 1300.49 102.067 1299.57 103.835 1298.87L118.765 1292.99C120.533 1292.29 122 1292.19 123.168 1292.7C124.206 1293.15 125.073 1294.26 125.771 1296.03L136.508 1323.23L148.508 1318.5L133.311 1279.99C132.613 1278.22 132.536 1276.8 133.08 1275.73C133.494 1274.6 134.584 1273.68 136.352 1272.99L152.678 1266.55C154.445 1265.85 155.913 1265.75 157.08 1266.26C158.118 1266.71 158.986 1267.82 159.683 1269.59Z" fill="black"/>
<path d="M161.294 1223.12L164.52 1234.21C165.051 1236.03 165.01 1237.5 164.397 1238.62C163.852 1239.61 162.667 1240.37 160.843 1240.9L155.082 1242.58C153.257 1243.11 151.849 1243.1 150.857 1242.56C149.742 1241.94 148.919 1240.72 148.388 1238.9L145.497 1228.96C145.134 1227.71 144.519 1226.85 143.651 1226.37C142.687 1225.93 141.581 1225.88 140.333 1226.25L138.172 1226.87L142.739 1242.57C143.27 1244.4 143.277 1245.85 142.76 1246.94C142.119 1247.96 140.887 1248.73 139.062 1249.27L117.745 1255.46C115.921 1255.99 114.513 1255.99 113.521 1255.44C112.405 1254.83 111.582 1253.61 111.052 1251.79L102.588 1222.69C102.058 1220.87 102.113 1219.45 102.754 1218.43C103.27 1217.34 104.441 1216.53 106.265 1216L133.344 1208.13C140.642 1206 146.64 1206.39 151.338 1209.3C156.104 1212.08 159.423 1216.69 161.294 1223.12ZM91.0657 1226.04L99.5287 1255.14C100.059 1256.96 100.066 1258.42 99.5495 1259.5C98.9088 1260.52 97.6762 1261.3 95.8517 1261.83L66.6127 1270.33C64.7882 1270.86 63.3802 1270.85 62.3885 1270.31C61.273 1269.7 60.4498 1268.48 59.9191 1266.65L51.4561 1237.56C50.9254 1235.74 50.9804 1234.31 51.6212 1233.29C52.138 1232.21 53.3086 1231.4 55.133 1230.87L84.3721 1222.37C86.1966 1221.83 87.6666 1221.88 88.7822 1222.49C89.7738 1223.03 90.535 1224.22 91.0657 1226.04Z" fill="black"/>
</svg>
